<svg version="1.1" viewBox="0 0 132 132" xmlns="http://www.w3.org/2000/svg" xmlns:xlink="http://www.w3.org/1999/xlink"><defs><radialGradient id="c" cx="158.4" cy="578.1" r="65" gradientTransform="matrix(0 -1.982 1.844 0 -1031 454)" gradientUnits="userSpaceOnUse"><stop stop-color="#fd5" offset="0"/><stop stop-color="#fd5" offset=".1"/><stop stop-color="#ff543e" offset=".5"/><stop stop-color="#c837ab" offset="1"/></radialGradient><radialGradient id="d" cx="147.7" cy="473.5" r="65" gradientTransform="matrix(.1739 .8687 -3.582 .7172 1648 -458.5)" gradientUnits="userSpaceOnUse"><stop stop-color="#3771c8" offset="0"/><stop stop-color="#3771c8" offset=".128"/><stop stop-color="#60f" stop-opacity="0" offset="1"/></radialGradient></defs><path transform="translate(1.004,1)" d="m65.03 0c-27.14 0-35.08.028-36.62.156-5.57.463-9.036 1.34-12.81 3.22-2.91 1.445-5.205 3.12-7.47 5.468-4.125 4.282-6.625 9.55-7.53 15.81-.44 3.04-.568 3.66-.594 19.19-.01 5.176 0 11.99 0 21.12 0 27.12.03 35.05.16 36.59.45 5.42 1.3 8.83 3.1 12.56 3.44 7.14 10.01 12.5 17.75 14.5 2.68.69 5.64 1.07 9.44 1.25 1.61.07 18.02.12 34.44.12s32.84-.02 34.41-.1c4.4-.207 6.955-.55 9.78-1.28 7.79-2.01 14.24-7.29 17.75-14.53 1.765-3.64 2.66-7.18 3.065-12.32.088-1.12.125-18.98.125-36.81 0-17.84-.04-35.66-.128-36.78-.41-5.22-1.305-8.73-3.127-12.44-1.495-3.037-3.155-5.305-5.565-7.624-4.301-4.108-9.561-6.608-15.83-7.512-3.037-.439-3.642-.569-19.18-.596z" fill="url(#c)"/><path transform="translate(1.004,1)" d="m65.03 0c-27.14 0-35.08.028-36.62.156-5.57.463-9.036 1.34-12.81 3.22-2.91 1.445-5.205 3.12-7.47 5.468-4.125 4.282-6.625 9.55-7.53 15.81-.44 3.04-.568 3.66-.594 19.19-.01 5.176 0 11.99 0 21.12 0 27.12.03 35.05.16 36.59.45 5.42 1.3 8.83 3.1 12.56 3.44 7.14 10.01 12.5 17.75 14.5 2.68.69 5.64 1.07 9.44 1.25 1.61.07 18.02.12 34.44.12s32.84-.02 34.41-.1c4.4-.207 6.955-.55 9.78-1.28 7.79-2.01 14.24-7.29 17.75-14.53 1.765-3.64 2.66-7.18 3.065-12.32.088-1.12.125-18.98.125-36.81 0-17.84-.04-35.66-.128-36.78-.41-5.22-1.305-8.73-3.127-12.44-1.495-3.037-3.155-5.305-5.565-7.624-4.301-4.108-9.561-6.608-15.83-7.512-3.037-.439-3.642-.569-19.18-.596z" fill="url(#d)"/><path d="m66 18c-13.04 0-14.67.057-19.79.29-7.682.2848-15.24 2.925-20.15 7.765-5.564 5.624-7.442 13.58-7.77 20.15-.229 5.12-.289 6.757-.289 19.79s.058 14.67.29 19.79c.2855 7.683 2.926 15.24 7.766 20.15 5.622 5.568 13.58 7.437 20.15 7.77 5.12.233 6.755.29 19.79.29 13.04 0 14.67-.057 19.79-.29 7.687-.2827 15.24-2.926 20.15-7.77 5.568-5.623 7.43-13.58 7.77-20.15.23-5.12.29-6.752.29-19.79s-.06-14.67-.29-19.79c-.2901-7.683-2.929-15.24-7.77-20.15-5.626-5.567-13.59-7.432-20.16-7.765-5.12-.233-6.75-.29-19.79-.29zm-4.306 8.65c1.278-.002 2.704 0 4.306 0 12.82 0 14.34.046 19.4.276 5.338.1371 10.99 1.852 14.43 5.243 3.997 4.087 5.019 9.99 5.245 14.43.23 5.06.28 6.58.28 19.39s-.05 14.33-.28 19.39c-1.09 13.79-8.297 19.09-19.67 19.67-5.06.23-6.58.28-19.4.28-12.82 0-14.34-.05-19.4-.28-5.339-.1399-11-1.854-14.43-5.245-3.998-4.086-5.019-9.987-5.245-14.43-.23-5.06-.276-6.58-.276-19.4s.046-14.33.276-19.39c.1369-5.34 1.853-11 5.245-14.43 4.088-3.998 9.992-5.019 14.43-5.247 4.428-.2 6.144-.26 15.09-.27zm29.93 7.97c-3.18 0-5.76 2.577-5.76 5.758 0 3.18 2.58 5.76 5.76 5.76s5.76-2.58 5.76-5.76-2.58-5.76-5.76-5.76zm-25.62 6.73c-13.61 0-24.65 11.04-24.65 24.65s11.04 24.64 24.65 24.64 24.65-11.03 24.65-24.64-11.03-24.65-24.65-24.65zm0 8.65c8.836 0 16 7.163 16 16 0 8.836-7.164 16-16 16-8.837 0-16-7.164-16-16 0-8.837 7.163-16 16-16z" fill="#fff"/></svg>
