<svg version="1.1" viewBox="0 0 58.03 50" xml:space="preserve" xmlns="http://www.w3.org/2000/svg"><path d="m57.97 50h-57.97v-50h58z" fill="#797979" stroke-width=".9998"/><polygon points="6 43 7 44 7 46 6 47 4 47 3 46 3 44 4 43" fill="#5e5f62"/><polygon points="13 43 14 44 14 46 13 47 11 47 10 46 10 44 11 43" fill="#5e5f62"/><polygon points="6 41 7 42 7 44 6 45 4 45 3 44 3 42 4 41" fill="#d1d4d1"/><polygon points="13 41 14 42 14 44 13 45 11 45 10 44 10 42 11 41" fill="#d1d4d1"/><path d="m40.02 0-.025.5c-.4826 9.653 7.835 17.5 17.5 17.5.169 0 .3501-.0015.5181-.0055l.01018-17.99z" fill="#d1d4d1"/><circle cx="51" cy="7" r="4" fill="#95a5a5"/><path d="m51 6a1 1 0 00-1 1v3.443c0 8.805-3.177 17.28-8.896 23.9a1 1 0 00.1035 1.41 1 1 0 001.41-.1016c6.033-6.98 9.383-15.92 9.383-25.21v-3.443a1 1 0 00-1-1z" color="#000000" fill="#bdc3c7" stroke-linecap="round" stroke-miterlimit="10" style="-inkscape-stroke:none"/><path d="m42 34c-2.757 0-5 2.243-5 5v1h6v-6z" fill="#ecf0f1"/><path d="m22 3c-10.49 0-19 8.507-19 19s8.507 19 19 19 19-8.507 19-19-8.507-19-19-19z"/><path d="m22 13c-4.971 0-9 4.029-9 9s4.029 9 9 9 9-4.029 9-9-4.029-9-9-9zm0 6a3 3 0 013 3 3 3 0 01-3 3 3 3 0 01-3-3 3 3 0 013-3z" fill="#f3d55b"/><path d="m52 27c-.553 0-1 .448-1 1v18c0 .552.447 1 1 1s1-.448 1-1v-18c0-.552-.447-1-1-1z" fill="#484848"/><rect x="50" y="40" width="4" height="3" fill="#ecf0f1"/></svg>
