<svg width="2500" height="2500" version="1.1" viewBox="126.4 2.281 589 589" xmlns="http://www.w3.org/2000/svg"><circle cx="420.9" cy="296.8" r="294.5" fill="#2daae1"/><path d="m609.8 179.6c-13.89 6.164-28.81 10.33-44.5 12.2 16.01-9.587 28.28-24.78 34.07-42.86a154.8 154.8 0 01-49.21 18.8c-14.12-15.06-34.27-24.46-56.55-24.46-42.77 0-77.46 34.68-77.46 77.47 0 6.064.683 11.98 1.996 17.66-64.39-3.236-121.5-34.08-159.7-80.94-6.672 11.45-10.49 24.75-10.49 38.95 0 26.88 13.68 50.59 34.46 64.48a77.12 77.12 0 01-35.1-9.686v.979c0 37.54 26.7 68.84 62.14 75.96-6.511 1.784-13.34 2.716-20.41 2.716-4.998 0-9.847-.473-14.58-1.364 9.859 30.77 38.47 53.17 72.36 53.8-26.52 20.78-59.92 33.18-96.21 33.18-6.25 0-12.43-.373-18.49-1.104 34.29 21.99 75.01 34.82 118.8 34.82 142.5 0 220.4-118.1 220.4-220.4 0-3.361-.074-6.697-.236-10.02a157.9 157.9 0 0038.71-40.16z" fill="#fff"/></svg>
