<svg version="1.1" viewBox="0 0 220 32" xmlns="http://www.w3.org/2000/svg"><path d="m158.1 16.25v8.691h-2.601v-20.27h11.82v2.49h-9.215v6.653h8.312v2.436h-8.312z" fill="#5f6368" stroke-width="1.23"/><path d="m168.5 18c0-2.132.6686-3.897 2.007-5.294 1.357-1.397 3.063-2.095 5.117-2.095 2.055 0 3.75.6979 5.088 2.095 1.357 1.397 2.035 3.162 2.035 5.294 0 2.152-.6784 3.917-2.035 5.294-1.338 1.397-3.033 2.095-5.088 2.095-2.054 0-3.76-.6979-5.117-2.095-1.338-1.397-2.007-3.162-2.007-5.294zm2.601 0c0 1.491.4338 2.698 1.3 3.623.8665.9256 1.941 1.387 3.223 1.387 1.282 0 2.356-.4616 3.223-1.387.8665-.9244 1.3-2.132 1.3-3.623 0-1.472-.4338-2.671-1.3-3.595-.8861-.9441-1.96-1.416-3.223-1.416-1.263 0-2.338.4714-3.223 1.416-.8665.9244-1.3 2.123-1.3 3.595z" fill="#5f6368" stroke-width="1.23"/><path d="m185 11.06h2.488v1.924h.1131c.3958-.6782 1.004-1.244 1.824-1.697.8198-.4542 1.672-.6795 2.559-.6795 1.696 0 3 .485 3.913 1.457.9144.9712 1.372 2.355 1.372 4.148v8.72h-2.601v-8.551c-.0565-2.265-1.196-3.397-3.42-3.397-1.037 0-1.904.421-2.601 1.26-.6981.8407-1.046 1.845-1.046 3.015v7.674h-2.601z" fill="#5f6368" stroke-width="1.23"/><path d="m205.3 25.16c-1.131 0-2.07-.3496-2.813-1.049-.7448-.6979-1.126-1.669-1.145-2.915v-7.757h-2.43v-2.377h2.43v-4.248h2.602v4.248h3.391v2.377h-3.391v6.908c0 .9244.1782 1.553.5371 1.883.3577.3311.7632.4936 1.214.4936.2077 0 .4105-.02216.6084-.06893.1991-.04678.3822-.1096.5518-.1859l.8198 2.321c-.6784.245-1.471.3693-2.375.3693z" fill="#5f6368" stroke-width="1.23"/><path d="m220 21.09c0 1.208-.5285 2.228-1.583 3.058-1.056.8296-2.386 1.246-3.986 1.246-1.395 0-2.622-.3644-3.676-1.091-1.056-.725-1.809-1.684-2.261-2.873l2.317-.9909c.3404.8309.8345 1.477 1.485 1.94.6502.4616 1.363.693 2.136.693.8296 0 1.522-.1785 2.077-.5379.5555-.3582.8333-.7829.8333-1.274 0-.8875-.6772-1.537-2.034-1.953 0 0-2.376-.5945-2.376-.5945-2.695-.6795-4.042-1.982-4.042-3.907 0-1.264.5125-2.28 1.54-3.043 1.027-.7644 2.343-1.147 3.945-1.147 1.224 0 2.332.293 3.321.8776.9894.5859 1.681 1.368 2.076 2.35 0 0-2.317.9626-2.317.9626-.2642-.5847-.692-1.043-1.286-1.374-.5936-.3287-1.26-.4948-1.994-.4948-.6784 0-1.287.1699-1.824.5096-.5371.3397-.805.7545-.805 1.246 0 .7927.7448 1.359 2.232 1.699l2.094.5379c2.751.6795 4.127 2.067 4.127 4.162z" fill="#5f6368" stroke-width="1.23"/><path d="m66.36 25.38c-6.333 0-11.66-5.142-11.66-11.46 0-6.316 5.327-11.46 11.66-11.46 3.505 0 5.999 1.37 7.878 3.159l-2.217 2.207c-1.345-1.257-3.166-2.235-5.661-2.235-4.625 0-8.241 3.717-8.241 8.328 0 4.612 3.616 8.33 8.241 8.33 2.999 0 4.71-1.203 5.804-2.292.896-.8949 1.486-2.18 1.708-3.941h-7.512v-3.13h10.57c.1118.5588.1672 1.231.1672 1.957 0 2.347-.6453 5.254-2.72 7.323-2.018 2.095-4.595 3.213-8.016 3.213z" fill="#5f6368" stroke-width="1.23"/><path d="m93.43 18c0 4.248-3.277 7.378-7.296 7.378-4.018 0-7.293-3.13-7.293-7.378 0-4.276 3.275-7.378 7.293-7.378 4.019 0 7.296 3.102 7.296 7.378zm-3.193 0c0-2.655-1.901-4.472-4.103-4.472s-4.101 1.817-4.101 4.472c0 2.627 1.9 4.472 4.101 4.472s4.103-1.845 4.103-4.472z" fill="#5f6368" stroke-width="1.23"/><path d="m109.8 18c0 4.248-3.277 7.378-7.296 7.378-4.017 0-7.293-3.13-7.293-7.378 0-4.276 3.277-7.378 7.293-7.378 4.019 0 7.296 3.102 7.296 7.378zm-3.193 0c0-2.655-1.9-4.472-4.103-4.472-2.201 0-4.1 1.817-4.1 4.472 0 2.627 1.899 4.472 4.1 4.472 2.202 0 4.103-1.845 4.103-4.472z" fill="#5f6368" stroke-width="1.23"/><path d="m125.7 11.07v13.24c0 5.45-3.223 7.686-7.035 7.686-3.588 0-5.746-2.404-6.558-4.36l2.829-1.174c.5051 1.201 1.738 2.627 3.729 2.627 2.438 0 3.953-1.508 3.953-4.332v-1.062h-.1118c-.7288.8949-2.131 1.677-3.896 1.677-3.701 0-7.093-3.213-7.093-7.35 0-4.164 3.392-7.406 7.093-7.406 1.765 0 3.167.7829 3.896 1.649h.1118v-1.203h3.082zm-2.859 6.96c0-2.598-1.738-4.5-3.951-4.5-2.243 0-4.121 1.902-4.121 4.5 0 2.571 1.878 4.444 4.121 4.444 2.214 0 3.951-1.872 3.951-4.444z" fill="#5f6368" stroke-width="1.23"/><path d="m131.4 24.93h-3.252v-21.69h3.252z" fill="#5f6368" stroke-width="1.23"/><path d="m144.2 20.43 2.523 1.677c-.8112 1.203-2.775 3.269-6.166 3.269-4.203 0-7.24-3.24-7.24-7.376 0-4.388 3.063-7.378 6.877-7.378 3.841 0 5.719 3.045 6.335 4.693l.3355.8382-9.894 4.08c.7571 1.481 1.933 2.237 3.588 2.237 1.653 0 2.803-.8112 3.643-2.041zm-7.764-2.655 6.616-2.738c-.365-.922-1.458-1.566-2.748-1.566-1.653 0-3.95 1.452-3.868 4.303z" fill="#5f6368" stroke-width="1.23"/><path d="m0 28.31 17.82-28.31h11.06v3.939l-15.36 24.37" fill="#fbbc04" stroke-width="1.23"/><path d="m28.88 28.31h-11.06v-28.31h11.06z" fill="#1a73e8" stroke-width="1.23"/><path d="m36.87 20.31c0 4.419-3.577 8.001-7.989 8.001v-16c4.412 0 7.989 3.582 7.989 8.001z" fill="#34a853" stroke-width="1.23"/><path d="m28.88 28.31c-4.412 0-7.989-3.582-7.989-8.001 0-4.419 3.577-8.001 7.989-8.001z" fill="#0d652d" stroke-width="1.23"/><path d="m35.03 6.155c0 3.399-2.751 6.155-6.145 6.155v-12.31c3.395 0 6.145 2.756 6.145 6.155z" fill="#1a73e8" stroke-width="1.23"/><path d="m28.88 12.31c-3.395 0-6.145-2.756-6.145-6.155s2.751-6.155 6.145-6.155z" fill="#174ea6" stroke-width="1.23"/><path d="m.6145 5.539c0-3.059 2.477-5.539 5.531-5.539s5.531 2.48 5.531 5.539c0 3.059-2.477 5.539-5.531 5.539s-5.531-2.48-5.531-5.539z" fill="#ea4335" stroke-width="1.23"/></svg>
