<svg class="octicon octicon-mark-github v-align-middle" aria-hidden="true" data-view-component="true" version="1.1" viewBox="0 0 32 32" xmlns="http://www.w3.org/2000/svg"><path d="m16 8e-4c-8.84 0-16 7.342-16 16.4 0 7.26 4.58 13.39 10.94 15.56.8.1435 1.1-.3486 1.1-.7792 0-.3896-.02-1.681-.02-3.056-4.02.7588-5.06-1.005-5.38-1.928-.18-.4716-.96-1.928-1.64-2.318-.56-.3076-1.36-1.066-.02-1.087 1.26-.0205 2.16 1.189 2.46 1.681 1.44 2.482 3.74 1.784 4.66 1.353.14-1.066.56-1.784 1.02-2.194-3.56-.4102-7.28-1.825-7.28-8.1 0-1.784.62-3.26 1.64-4.408-.16-.4102-.72-2.092.16-4.348 0 0 1.34-.4306 4.4 1.681 1.28-.3692 2.64-.5536 4-.5536s2.72.1846 4 .5536c3.06-2.132 4.4-1.681 4.4-1.681.88 2.256.32 3.938.16 4.348 1.02 1.148 1.64 2.604 1.64 4.408 0 6.296-3.74 7.69-7.3 8.1.58.5126 1.08 1.497 1.08 3.034 0 2.194-.02 3.958-.02 4.512 0 .4306.3.9432 1.1.7792a16.03 16.43 0 0010.9-15.56c0-9.064-7.16-16.4-16-16.4z" fill-rule="evenodd" stroke-width="2.026"/></svg>
