<svg enable-background="new 0 0 73 22.125" version="1.0" viewBox="0 0 110 32" xml:space="preserve" xmlns="http://www.w3.org/2000/svg"><g transform="scale(1.529 1.516)"><rect x="53.93" width="18.02" height="21.1" fill="#6b9bd2"/><path d="m0 18.18c0 .017.125-.143.374-.479.249-.334.529-.7.838-1.096.361-.464.774-.989 1.238-1.574.464.327.938.619 1.419.877.413.224.86.422 1.342.593.481.172.938.258 1.368.258.258 0 .52-.039.787-.116s.507-.185.723-.322c.215-.138.391-.301.529-.49.137-.189.206-.396.206-.619 0-.533-.301-1.002-.903-1.406s-1.341-.778-2.219-1.123c-.551-.223-1.122-.503-1.716-.838-.593-.335-1.135-.739-1.625-1.212s-.89-1.019-1.2-1.639c-.31-.619-.464-1.315-.464-2.089 0-.74.125-1.445.375-2.116.249-.671.623-1.264 1.122-1.78s1.118-.924 1.857-1.226c.739-.3 1.607-.451 2.605-.451.774 0 1.479.095 2.116.284.636.189 1.212.413 1.729.671.516.258.962.529 1.341.813.378.284.697.521.955.709l-2.374 3.225c-.051-.034-.202-.142-.451-.323-.25-.181-.555-.37-.916-.567s-.766-.379-1.213-.542c-.448-.163-.912-.245-1.393-.245-.464 0-.869.125-1.212.374-.344.25-.516.546-.516.89 0 .482.228.916.684 1.303s1.2.787 2.232 1.2c.499.206 1.053.464 1.664.774.61.31 1.178.696 1.703 1.161.524.464.963 1.019 1.316 1.664s.529 1.406.529 2.283c0 .671-.139 1.346-.413 2.025-.275.68-.676 1.299-1.2 1.857-.525.559-1.166 1.016-1.922 1.367-.757.353-1.608.529-2.554.529-.843 0-1.647-.112-2.412-.336-.768-.221-1.456-.484-2.066-.786-.611-.301-1.118-.593-1.522-.877-.405-.283-.658-.485-.761-.605z" fill="#575880"/><path d="m15.12 2.034h4.463l4.283 9.804 4.283-9.804h4.463l-8.746 18.78z" fill="#575880"/><path d="m50.21 14.08c-.086 1.255-.438 2.374-1.058 3.354-.258.413-.59.821-.993 1.225-.404.404-.903.766-1.496 1.084-.594.318-1.29.571-2.09.761s-1.725.284-2.774.284c-1.341 0-2.602-.254-3.779-.762-1.179-.507-2.207-1.203-3.088-2.09-.881-.885-1.573-1.917-2.077-3.096-.504-1.178-.756-2.438-.756-3.779 0-1.342.252-2.602.756-3.78s1.196-2.21 2.077-3.096 1.909-1.582 3.088-2.09c1.177-.507 2.438-.761 3.779-.761 1.342 0 2.602.257 3.78.77s2.206 1.205 3.083 2.076l-2.838 2.831c-.517-.499-1.118-.898-1.806-1.2-.688-.301-1.429-.452-2.22-.452s-1.53.147-2.219.441c-.688.294-1.29.7-1.806 1.218s-.92 1.123-1.213 1.814c-.292.691-.438 1.434-.438 2.229s.146 1.538.438 2.229c.293.691.697 1.296 1.213 1.814.516.519 1.118.924 1.806 1.218s1.428.441 2.219.441c1.101 0 1.948-.139 2.542-.417.593-.278 1.027-.59 1.303-.938.31-.399.49-.851.542-1.354h-4.387v-4.025h8.411v4.051z" fill="#575880"/><path d="m59.1 7.49h-.74v2.03h-1.56v-7h3.05c.34 0 .662.065.965.195s.566.307.79.529c.224.224.399.487.53.79.13.304.195.625.195.966 0 .267-.041.52-.121.76s-.189.462-.33.665c-.139.203-.307.383-.5.54-.193.156-.406.278-.639.364l1.59 2.19h-1.92zm-.741-1.47h1.49c.141 0 .271-.026.395-.08.123-.053.232-.127.326-.22.093-.094.166-.202.219-.325.054-.123.08-.255.08-.395 0-.261-.088-.485-.265-.676-.177-.189-.388-.301-.635-.335h-1.61z" fill="#f7f7f7"/><path d="m66.19 7.96h3.267v1.56h-4.989v-7h4.989v1.56h-3.267v1.091h2.727v1.56h-2.727z" fill="#f7f7f7"/><path d="m62.12 14.33c0 .34-.064.661-.195.965-.13.303-.307.568-.529.795-.224.227-.487.404-.791.535-.303.13-.625.194-.965.194h-1.49v2.03h-1.559v-7h3.049c.34 0 .662.065.965.195.304.13.567.307.791.529.223.224.399.487.529.79.131.305.195.627.195.967zm-3.971 1.02h1.49c.141 0 .271-.026.396-.08.123-.053.231-.127.325-.22.094-.094.166-.202.22-.325s.08-.255.08-.395c0-.261-.089-.485-.265-.676-.178-.189-.389-.301-.635-.335h-1.611z" fill="#f7f7f7"/><path d="m63.69 15.26c0-.517.088-.9995.266-1.45s.42-.842.727-1.175.666-.596 1.078-.789c.412-.192.854-.289 1.322-.289.477 0 .922.097 1.336.289.416.193.777.456 1.084.789s.549.725.727 1.175c.178.451.266.934.266 1.45 0 .509-.088.987-.266 1.435s-.42.838-.727 1.171-.668.596-1.084.788c-.414.192-.859.289-1.336.289-.469 0-.91-.097-1.322-.289s-.771-.455-1.078-.788-.549-.724-.727-1.171-.266-.926-.266-1.435zm1.41 0c0 .302.053.584.158.846.105.263.248.49.426.684s.389.347.629.458c.242.111.498.167.77.167.279 0 .539-.056.785-.167.244-.111.457-.264.637-.458.182-.193.324-.421.426-.684.104-.262.154-.544.154-.846s-.051-.584-.154-.847c-.102-.262-.244-.492-.426-.688-.18-.197-.393-.353-.637-.468-.246-.114-.506-.172-.785-.172-.271 0-.527.058-.77.172-.24.115-.451.271-.629.468-.178.196-.32.427-.426.688-.105.263-.158.545-.158.847z" fill="#f7f7f7"/></g></svg>
